<svg version="1.1" id="Capa_1" xmlns="http://www.w3.org/2000/svg" xmlns:xlink="http://www.w3.org/1999/xlink" x="0px" y="0px" viewBox="0 0 469.105 469.105" style="enable-background:new 0 0 469.105 469.105;" xml:space="preserve">
  <g>
    <path d="M119.379,216.46c2.979,9.174,10.076,15.108,16.338,20.345c3.322,2.778,6.46,5.402,8.343,7.988
		c1.929,2.651,3.482,6.49,5.128,10.555c3.043,7.519,6.492,16.041,14.19,21.643c7.632,5.555,16.77,6.215,24.83,6.798
		c4.413,0.319,8.581,0.621,11.774,1.658c2.941,0.955,6.345,3.093,9.949,5.356c6.949,4.364,14.825,9.31,24.623,9.31
		c9.797,0,17.673-4.946,24.622-9.31c3.604-2.264,7.009-4.401,9.95-5.356c3.192-1.037,7.36-1.338,11.773-1.657
		c8.062-0.583,17.198-1.244,24.832-6.799c7.697-5.602,11.146-14.124,14.189-21.643c1.646-4.065,3.199-7.904,5.129-10.555
		c1.882-2.586,5.02-5.21,8.342-7.988c6.262-5.236,13.359-11.171,16.337-20.344c2.871-8.839,0.695-17.659-1.225-25.44
		c-1.078-4.371-2.097-8.5-2.097-11.98s1.019-7.609,2.097-11.98c1.92-7.781,4.096-16.601,1.226-25.439
		c-2.979-9.174-10.076-15.108-16.338-20.344c-3.322-2.778-6.46-5.402-8.342-7.988c-1.93-2.651-3.483-6.49-5.129-10.555
		c-3.043-7.519-6.492-16.041-14.19-21.644c-7.633-5.554-16.77-6.215-24.831-6.798c-4.413-0.319-8.581-0.621-11.772-1.657
		c-2.941-0.955-6.346-3.093-9.95-5.356c-6.949-4.364-14.825-9.311-24.623-9.311s-17.674,4.946-24.623,9.311
		c-3.604,2.264-7.009,4.401-9.949,5.356c-3.192,1.037-7.36,1.338-11.773,1.657c-8.062,0.583-17.198,1.244-24.832,6.799
		c-7.697,5.602-11.146,14.124-14.189,21.643c-1.646,4.065-3.199,7.904-5.128,10.555c-1.883,2.586-5.021,5.21-8.343,7.988
		c-6.262,5.236-13.358,11.171-16.337,20.344c-2.871,8.839-0.695,17.659,1.225,25.44c1.078,4.371,2.097,8.5,2.097,11.98
		s-1.019,7.609-2.097,11.98C118.685,198.802,116.509,207.622,119.379,216.46z M140.023,162.271
		c-1.403-5.688-2.729-11.061-1.621-14.473c1.201-3.699,5.546-7.332,10.146-11.178c4.105-3.433,8.351-6.983,11.684-11.562
		c3.375-4.638,5.47-9.814,7.496-14.82c2.235-5.523,4.347-10.74,7.419-12.976c3.01-2.19,8.594-2.594,14.506-3.022
		c5.41-0.391,11.004-0.796,16.508-2.583c5.3-1.721,9.931-4.629,14.409-7.442c5.116-3.213,9.948-6.248,13.986-6.248
		s8.87,3.035,13.986,6.248c4.479,2.813,9.109,5.721,14.41,7.442c5.503,1.787,11.097,2.191,16.507,2.583
		c5.912,0.428,11.496,0.832,14.505,3.021c3.073,2.236,5.185,7.453,7.42,12.976c2.026,5.006,4.121,10.183,7.496,14.82
		c3.333,4.579,7.578,8.129,11.684,11.563c4.6,3.846,8.944,7.479,10.146,11.178c1.107,3.412-0.218,8.784-1.621,14.472
		c-1.256,5.09-2.679,10.859-2.679,16.771s1.423,11.681,2.679,16.771c1.403,5.688,2.729,11.061,1.621,14.473
		c-1.201,3.699-5.546,7.332-10.146,11.178c-4.105,3.433-8.351,6.983-11.683,11.563c-3.376,4.638-5.471,9.814-7.497,14.82
		c-2.235,5.523-4.347,10.739-7.419,12.976c-3.011,2.19-8.595,2.594-14.507,3.022c-5.409,0.391-11.003,0.796-16.506,2.583
		c-5.301,1.721-9.932,4.629-14.41,7.442c-5.116,3.212-9.948,6.247-13.986,6.247c-4.039,0-8.87-3.035-13.986-6.247
		c-4.479-2.813-9.109-5.721-14.409-7.442c-5.504-1.787-11.098-2.191-16.508-2.583c-5.912-0.427-11.496-0.832-14.505-3.021
		c-3.073-2.236-5.185-7.453-7.42-12.976c-2.026-5.006-4.121-10.183-7.497-14.82c-3.332-4.58-7.577-8.129-11.683-11.562
		c-4.6-3.846-8.944-7.479-10.146-11.179c-1.107-3.412,0.218-8.784,1.621-14.472c1.256-5.09,2.679-10.859,2.679-16.77
		S141.279,167.361,140.023,162.271z"/>
    <path d="M440.844,359.838l-76.437-76.438c1.248-2.701,2.547-5.138,3.986-7.115c2.764-3.797,7.387-7.663,12.282-11.756
		c9.271-7.753,19.78-16.541,24.199-30.151c4.26-13.117,1.038-26.176-1.805-37.698c-1.589-6.442-3.09-12.526-3.09-17.639
		c0-5.113,1.501-11.197,3.091-17.639c2.842-11.521,6.063-24.579,1.805-37.697c-4.419-13.611-14.928-22.398-24.2-30.152
		c-4.896-4.093-9.519-7.959-12.282-11.756c-2.832-3.892-5.122-9.549-7.547-15.54c-4.506-11.133-9.613-23.751-21.035-32.064
		c-11.325-8.243-24.854-9.221-36.792-10.085c-6.502-0.47-12.645-0.915-17.332-2.437c-4.317-1.402-9.333-4.552-14.644-7.887
		C260.753,7.324,249.091,0,234.555,0c-14.537,0-26.199,7.324-36.488,13.786c-5.311,3.335-10.326,6.485-14.642,7.887
		c-4.688,1.522-10.831,1.966-17.333,2.437c-11.938,0.863-25.468,1.842-36.793,10.084c-11.423,8.313-16.53,20.932-21.036,32.065
		c-2.424,5.99-4.714,11.647-7.546,15.539c-2.763,3.796-7.387,7.663-12.282,11.756c-9.271,7.753-19.781,16.541-24.2,30.152
		c-4.259,13.117-1.037,26.175,1.806,37.697c1.589,6.442,3.09,12.526,3.09,17.639c0,5.112-1.501,11.197-3.091,17.638
		c-2.842,11.521-6.064,24.58-1.805,37.697c4.419,13.611,14.929,22.399,24.2,30.152c4.896,4.093,9.519,7.959,12.282,11.756
		c1.439,1.977,2.737,4.412,3.984,7.112l-76.44,76.44c-3.743,3.742-5.236,9.18-3.93,14.309s5.22,9.19,10.297,10.686l56.78,16.73
		l16.73,56.781c1.496,5.077,5.557,8.989,10.686,10.296c1.226,0.313,2.469,0.465,3.702,0.465c3.929,0,7.759-1.545,10.607-4.394
		l101.423-101.414l101.414,101.414c2.849,2.849,6.678,4.394,10.607,4.394c1.232,0,2.477-0.152,3.702-0.465
		c5.129-1.306,9.189-5.219,10.686-10.296l16.73-56.781l56.78-16.73c5.077-1.496,8.99-5.557,10.297-10.686
		S444.587,363.581,440.844,359.838z M92.768,225.112c-1.616-4.976,0.334-12.879,2.398-21.246c1.858-7.53,3.964-16.066,3.964-24.824
		c0-8.759-2.105-17.294-3.964-24.825c-2.064-8.368-4.014-16.271-2.398-21.247c1.754-5.4,8.145-10.744,14.911-16.402
		c6.074-5.079,12.355-10.331,17.294-17.117c5.002-6.873,8.102-14.531,11.099-21.937c3.289-8.125,6.395-15.799,10.881-19.064
		c4.391-3.196,12.605-3.79,21.304-4.419c8.003-0.579,16.278-1.177,24.434-3.825c7.854-2.551,14.706-6.853,21.332-11.014
		C221.548,34.465,228.657,30,234.555,30s13.007,4.464,20.533,9.191c6.626,4.161,13.478,8.464,21.334,11.015
		c8.153,2.648,16.43,3.247,24.433,3.825c8.697,0.629,16.912,1.224,21.303,4.419c4.485,3.264,7.592,10.938,10.88,19.063
		c2.998,7.407,6.098,15.065,11.1,21.938c4.938,6.786,11.22,12.038,17.294,17.117c6.767,5.658,13.158,11.003,14.911,16.402
		c1.615,4.977-0.334,12.88-2.398,21.247c-1.858,7.531-3.964,16.066-3.964,24.825c0,8.758,2.105,17.293,3.963,24.824
		c2.064,8.367,4.015,16.271,2.398,21.248c-1.754,5.4-8.145,10.744-14.911,16.402c-6.073,5.079-12.354,10.331-17.293,17.117
		c-5.002,6.872-8.102,14.531-11.099,21.938c-3.289,8.125-6.395,15.799-10.88,19.063c-4.392,3.196-12.606,3.79-21.305,4.419
		c-8.003,0.579-16.279,1.177-24.433,3.825c-7.855,2.551-14.707,6.854-21.333,11.015c-7.526,4.727-14.636,9.191-20.533,9.191
		s-13.008-4.465-20.534-9.192c-6.626-4.161-13.478-8.463-21.332-11.014c-8.154-2.648-16.431-3.246-24.434-3.825
		c-8.697-0.629-16.912-1.223-21.304-4.419c-4.485-3.264-7.591-10.938-10.88-19.063c-2.997-7.406-6.097-15.064-11.099-21.937
		c-4.938-6.786-11.22-12.038-17.294-17.117C100.912,235.857,94.522,230.512,92.768,225.112z M129.779,425.642l-11.902-40.396
		c-1.44-4.887-5.263-8.708-10.149-10.148l-40.396-11.903l50.955-50.955c2.911,4.322,6.453,8.332,11.013,11.65
		c11.325,8.243,24.854,9.221,36.792,10.084c6.502,0.47,12.645,0.915,17.332,2.437c4.316,1.402,9.332,4.552,14.643,7.887
		c2.609,1.638,5.307,3.331,8.117,4.947L129.779,425.642z M361.378,375.097c-4.888,1.44-8.709,5.262-10.149,10.148l-11.902,40.396
		l-76.398-76.398c2.809-1.615,5.506-3.308,8.115-4.946c5.31-3.335,10.326-6.485,14.643-7.887c4.688-1.522,10.83-1.966,17.333-2.437
		c11.937-0.864,25.467-1.842,36.792-10.084c4.559-3.318,8.101-7.327,11.011-11.648l50.952,50.953L361.378,375.097z"/>
  </g>
</svg>
